<?xml version="1.0" encoding="utf-8"?>
<!-- Svg Vector Icons : http://www.onlinewebfonts.com/icon -->
<!DOCTYPE svg PUBLIC "-//W3C//DTD SVG 1.1//EN" "http://www.w3.org/Graphics/SVG/1.1/DTD/svg11.dtd">
<svg version="1.1" xmlns="http://www.w3.org/2000/svg" x="0px" y="0px"
     viewBox="0 0 1000 1000" enable-background="new 0 0 1000 1000" xml:space="preserve">
<metadata> Svg Vector Icons : http://www.onlinewebfonts.com/icon </metadata>
    <g><path d="M896.3,954.7H103.6c-12.9,0-23.3-10.4-23.3-23.3V581.6c0-12.9,10.4-23.3,23.3-23.3h163.2v127c0,20,17.3,36.3,38.5,36.3h389.2c21.2,0,38.5-16.3,38.5-36.3v-127h163.3c12.9,0,23.3,10.4,23.3,23.3v349.8C919.7,944.2,909.2,954.7,896.3,954.7z"/>
        <path d="M989,384.2h1l-1.7-4.3c-2.1-10.8-6.1-20.9-11.7-29.9L849.7,45.3H150.2L23.3,350c-5.6,9.1-9.6,19.2-11.7,29.9l-1.7,4.3h0.9c-0.6,4.2-0.9,8.6-0.9,13c0,50.4,41.5,91.3,92.7,91.3c33.7,0,63.2-17.7,79.5-44.3c16.2,26.5,45.7,44.3,79.5,44.3c33.7,0,63.2-17.7,79.5-44.3c16.2,26.5,45.7,44.3,79.4,44.3s63.2-17.7,79.5-44.3c16.2,26.5,45.7,44.3,79.5,44.3c33.7,0,63.2-17.7,79.5-44.3c16.2,26.5,45.7,44.3,79.5,44.3c33.7,0,63.2-17.7,79.4-44.3c16.2,26.5,45.7,44.3,79.5,44.3c51.2,0,92.7-40.9,92.7-91.3C989.9,392.8,989.6,388.4,989,384.2z"/></g>
</svg>